<svg width="318" height="313" viewBox="0 0 318 313" fill="none" xmlns="http://www.w3.org/2000/svg">
<path d="M22.583 103.957H58.7158V116.164C68.3187 110.712 77.474 106.887 86.1816 104.689C94.9707 102.492 103.556 101.394 111.938 101.394C122.925 101.394 133.097 103.021 142.456 106.276C151.815 109.45 159.912 114.211 166.748 120.559C173.584 126.906 178.914 134.841 182.739 144.362C186.646 153.802 188.599 164.748 188.599 177.199V248H152.588V183.059C152.588 175.165 151.449 168.125 149.17 161.94C146.973 155.674 143.758 150.425 139.526 146.193C135.376 141.88 130.29 138.625 124.268 136.428C118.327 134.149 111.654 133.01 104.248 133.01C100.342 133.01 96.3135 133.417 92.1631 134.23C88.0941 135.044 84.0658 136.224 80.0781 137.771C76.1719 139.235 72.3877 141.107 68.7256 143.386C65.0635 145.583 61.7269 148.106 58.7158 150.954V248H22.583V103.957Z" fill="black"/>
<path d="M152.705 45.4854H188.838V165.114L256.221 103.957H311.519L236.201 171.34L316.279 248H262.08L208.491 196.12L188.838 213.698V248H152.705V45.4854Z" fill="black"/>
<circle cx="41" cy="63" r="18" fill="black"/>
</svg>
