<svg width="180" height="180" viewBox="0 0 180 180" fill="none" xmlns="http://www.w3.org/2000/svg">
<path d="M60 59.9985V0H180V59.9985L60 59.9985Z" fill="black"/>
<path d="M60.0024 119.996C93.1395 119.996 120.002 146.859 120.002 179.995L179.993 179.997L179.993 178.449C179.168 113.146 126.178 60.4124 60.7745 60.0003L0 60.0031V180H60L60.0024 119.996Z" fill="black"/>
<path d="M60 59.9985V0H180V59.9985L60 59.9985Z" fill="black"/>
<path d="M60.0024 119.996C93.1395 119.996 120.002 146.859 120.002 179.995L179.993 179.997L179.993 178.449C179.168 113.146 126.178 60.4124 60.7745 60.0003L0 60.0031V180H60L60.0024 119.996Z" fill="black"/>
<ellipse cx="25.002" cy="24.5" rx="25" ry="24.5" fill="#FFA500"/>
</svg>
