<svg width="846" height="305" viewBox="0 0 846 305" fill="none" xmlns="http://www.w3.org/2000/svg">
<path d="M117.25 107C127.917 107 137.417 109.083 145.75 113.25C154.25 117.417 160.917 123.833 165.75 132.5C170.583 141 173 152 173 165.5V242H141.75V169.5C141.75 157.667 138.917 148.833 133.25 143C127.75 137.167 120 134.25 110 134.25C102.667 134.25 96.1667 135.75 90.5 138.75C84.8333 141.75 80.4167 146.25 77.25 152.25C74.25 158.083 72.75 165.5 72.75 174.5V242H41.5V108.5H71.25V144.5L66 133.5C70.6667 125 77.4167 118.5 86.25 114C95.25 109.333 105.583 107 117.25 107Z" fill="black"/>
<path d="M208 212.25L208.75 173L278.5 108.5H316L256.75 168L240.25 181.75L208 212.25ZM182.5 242V56.5H213.75V242H182.5ZM283.25 242L234.5 181.75L254.25 156.75L321.25 242H283.25ZM413.744 242V215L411.994 209.25V162C411.994 152.833 409.244 145.75 403.744 140.75C398.244 135.583 389.911 133 378.744 133C371.244 133 363.827 134.167 356.494 136.5C349.327 138.833 343.244 142.083 338.244 146.25L325.994 123.5C333.161 118 341.661 113.917 351.494 111.25C361.494 108.417 371.827 107 382.494 107C401.827 107 416.744 111.667 427.244 121C437.911 130.167 443.244 144.417 443.244 163.75V242H413.744ZM371.744 243.75C361.744 243.75 352.994 242.083 345.494 238.75C337.994 235.25 332.161 230.5 327.994 224.5C323.994 218.333 321.994 211.417 321.994 203.75C321.994 196.25 323.744 189.5 327.244 183.5C330.911 177.5 336.827 172.75 344.994 169.25C353.161 165.75 363.994 164 377.494 164H416.244V184.75H379.744C369.077 184.75 361.911 186.5 358.244 190C354.577 193.333 352.744 197.5 352.744 202.5C352.744 208.167 354.994 212.667 359.494 216C363.994 219.333 370.244 221 378.244 221C385.911 221 392.744 219.25 398.744 215.75C404.911 212.25 409.327 207.083 411.994 200.25L417.244 219C414.244 226.833 408.827 232.917 400.994 237.25C393.327 241.583 383.577 243.75 371.744 243.75Z" fill="black"/>
<path d="M452.5 242V108.5H482.25V145.25L478.75 134.5C482.75 125.5 489 118.667 497.5 114C506.167 109.333 516.917 107 529.75 107V136.75C528.417 136.417 527.167 136.25 526 136.25C524.833 136.083 523.667 136 522.5 136C510.667 136 501.25 139.5 494.25 146.5C487.25 153.333 483.75 163.583 483.75 177.25V242H452.5ZM591.23 243.75C580.064 243.75 569.314 242.333 558.98 239.5C548.814 236.5 540.73 232.917 534.73 228.75L546.73 205C552.73 208.833 559.897 212 568.23 214.5C576.564 217 584.897 218.25 593.23 218.25C603.064 218.25 610.147 216.917 614.48 214.25C618.98 211.583 621.23 208 621.23 203.5C621.23 199.833 619.73 197.083 616.73 195.25C613.73 193.25 609.814 191.75 604.98 190.75C600.147 189.75 594.73 188.833 588.73 188C582.897 187.167 576.98 186.083 570.98 184.75C565.147 183.25 559.814 181.167 554.98 178.5C550.147 175.667 546.23 171.917 543.23 167.25C540.23 162.583 538.73 156.417 538.73 148.75C538.73 140.25 541.147 132.917 545.98 126.75C550.814 120.417 557.564 115.583 566.23 112.25C575.064 108.75 585.48 107 597.48 107C606.48 107 615.564 108 624.73 110C633.897 112 641.48 114.833 647.48 118.5L635.48 142.25C629.147 138.417 622.73 135.833 616.23 134.5C609.897 133 603.564 132.25 597.23 132.25C587.73 132.25 580.647 133.667 575.98 136.5C571.48 139.333 569.23 142.917 569.23 147.25C569.23 151.25 570.73 154.25 573.73 156.25C576.73 158.25 580.647 159.833 585.48 161C590.314 162.167 595.647 163.167 601.48 164C607.48 164.667 613.397 165.75 619.23 167.25C625.064 168.75 630.397 170.833 635.23 173.5C640.23 176 644.23 179.583 647.23 184.25C650.23 188.917 651.73 195 651.73 202.5C651.73 210.833 649.23 218.083 644.23 224.25C639.397 230.417 632.48 235.25 623.48 238.75C614.48 242.083 603.73 243.75 591.23 243.75ZM753.393 242V215L751.643 209.25V162C751.643 152.833 748.893 145.75 743.393 140.75C737.893 135.583 729.559 133 718.393 133C710.893 133 703.476 134.167 696.143 136.5C688.976 138.833 682.893 142.083 677.893 146.25L665.643 123.5C672.809 118 681.309 113.917 691.143 111.25C701.143 108.417 711.476 107 722.143 107C741.476 107 756.393 111.667 766.893 121C777.559 130.167 782.893 144.417 782.893 163.75V242H753.393ZM711.393 243.75C701.393 243.75 692.643 242.083 685.143 238.75C677.643 235.25 671.809 230.5 667.643 224.5C663.643 218.333 661.643 211.417 661.643 203.75C661.643 196.25 663.393 189.5 666.893 183.5C670.559 177.5 676.476 172.75 684.643 169.25C692.809 165.75 703.643 164 717.143 164H755.893V184.75H719.393C708.726 184.75 701.559 186.5 697.893 190C694.226 193.333 692.393 197.5 692.393 202.5C692.393 208.167 694.643 212.667 699.143 216C703.643 219.333 709.893 221 717.893 221C725.559 221 732.393 219.25 738.393 215.75C744.559 212.25 748.976 207.083 751.643 200.25L756.893 219C753.893 226.833 748.476 232.917 740.643 237.25C732.976 241.583 723.226 243.75 711.393 243.75Z" fill="black"/>
<circle cx="824.5" cy="220.5" r="21.5" fill="#FFA500"/>
<rect y="108" width="33" height="134" fill="black"/>
</svg>
