<svg width="30" height="30" viewBox="0 0 30 30" fill="none" xmlns="http://www.w3.org/2000/svg">
<path d="M10 9.99975V0H30V9.99975L10 9.99975Z" fill="white"/>
<path d="M10.0004 19.9994C15.5232 19.9994 20.0004 24.4764 20.0004 29.9991L29.9988 29.9995L29.9988 29.7415C29.8613 18.8576 21.0297 10.0687 10.1291 10.0001L0 10.0005V30H10L10.0004 19.9994Z" fill="white"/>
<path d="M10 9.99975V0H30V9.99975L10 9.99975Z" fill="white"/>
<path d="M10.0004 19.9994C15.5232 19.9994 20.0004 24.4764 20.0004 29.9991L29.9988 29.9995L29.9988 29.7415C29.8613 18.8576 21.0297 10.0687 10.1291 10.0001L0 10.0005V30H10L10.0004 19.9994Z" fill="white"/>
<ellipse cx="4.16691" cy="4.08333" rx="4.16667" ry="4.08333" fill="#FFA500"/>
</svg>
